<svg xmlns="http://www.w3.org/2000/svg" width="390.226" height="79.992" viewBox="0 0 390.226 79.992"><defs><style>.a{fill:#fff;}</style></defs><g transform="translate(-352.921 -336.817)"><path class="a" d="M352.921,366.03l12.189-12.186,6.957,6.958-3.476,3.489L365.11,360.8l-5.221,5.228,5.221,5.221L377.3,359.069l3.48,3.483L365.11,378.217Z" transform="translate(0 10.873)"/><path class="a" d="M412.355,366.04l-12.179,12.183-6.968-6.963,3.479-3.476,3.489,3.476,5.218-5.22-5.218-5.225L387.987,373l-3.487-3.486,15.676-15.665Z" transform="translate(17.162 10.879)"/><path class="a" d="M364.2,354.755l12.184-12.189,6.969,6.969-3.486,3.482-3.483-3.482-5.218,5.22,12.187,12.18-3.486,3.485Z" transform="translate(6.13 3.124)"/><path class="a" d="M398.011,378.532l-12.184,12.187-6.964-6.966,3.48-3.48,3.484,3.48,5.224-5.221-12.189-12.184,3.48-3.48Z" transform="translate(14.099 17.385)"/><path class="a" d="M373.227,358.234l3.48,3.483,3.476-3.483,12.192,12.187,3.473-3.489-12.172-12.176,5.216-5.222,5.224,5.222-3.488,3.477,3.488,3.483,6.959-6.961L388.89,342.563Z" transform="translate(11.035 3.123)"/><path class="a" d="M385.088,375.057l-12.181-12.19-3.479,3.477,12.184,12.187-5.227,5.223-5.216-5.223,3.478-3.474-3.478-3.482-6.968,6.956,12.184,12.187,15.668-15.662-3.479-3.482Z" transform="translate(6.13 17.385)"/><rect class="a" width="14.768" height="4.921" transform="translate(384.26 380.382) rotate(-44.98)"/><rect class="a" width="7.386" height="7.386" transform="matrix(0.707, -0.707, 0.707, 0.707, 385.996, 342.209)"/><rect class="a" width="7.386" height="7.386" transform="translate(385.996 411.587) rotate(-45.02)"/><path class="a" d="M440.96,353.4c1.554,0,2.091-.168,2.352-.434.5-.489.708-1.293.708-5.183s-.205-4.8-.708-5.289c-.261-.266-.8-.434-2.352-.434H430.741V353.4Zm8.948,16.092h4.325v5.229h-5.464c-2.258,0-3.065-.38-3.717-1.022-.807-.813-1.236-2.271-1.459-9.719-.1-3.024-.478-4-1.187-4.7-.864-.86-1.777-1.034-3.672-1.034h-7.994V369.59h5.189v5.127H419.895V369.59h5.073V342.056h-5.073v-5.124h22.941c2.488,0,4.154.432,5.294,1.559,1.462,1.465,2.051,3.3,2.051,8.968,0,6.643-1.567,7.983-5.882,8.58v.1c4,.77,5.118,2.28,5.34,7.782.056,1.67.159,3.89.269,5.567" transform="translate(41.183 0.063)"/><path class="a" d="M444.912,342.057v-5.126h29.576v11.388h-5.667v-6.262H455.752v10.583H465.9V357.6H455.752v11.993h13.5v-7.064h5.66v12.19h-30v-5.126h5.06V342.057Z" transform="translate(56.484 0.062)"/><path class="a" d="M466.879,342.056v-5.124H482.6v5.124h-5.123l7.883,27.066h.8l7.941-27.066h-5.123v-5.124h15.117v5.124h-4.15l-9.727,30.995c-.489,1.514-.972,1.843-2.591,1.843h-4.258c-1.627,0-2.124-.329-2.6-1.843l-9.718-30.995Z" transform="translate(70.144 0.063)"/><path class="a" d="M501.687,358.046h10.252l-4.7-15.933h-.815Zm-13.3,16.734v-5.137H492.5l9.77-31c.486-1.516.966-1.831,2.595-1.831H509.4c1.622,0,2.11.315,2.587,1.831l9.783,31h4.107v5.137H510.211v-5.137h5.181l-1.99-6.736c-3.3,0-9.667.045-13.132.045l-2,6.691h5.185v5.137Z" transform="translate(83.393 0)"/><path class="a" d="M438.659,369.057v-2.4h11.182v2.4h-4.2V384.81c0,7.06-.605,9.357-2.079,10.838-.988.949-2.436,1.337-5.432,1.337h-6.706c-2.988,0-4.334-.387-5.289-1.337-1.476-1.482-2.07-3.731-2.07-10.838V369.057h-4.172v-2.4h11.172v2.4h-4.59v15.926c0,6.331.594,7.778,1.5,8.684.573.568,1.358.914,3.945.914h5.9c2.6,0,3.332-.346,3.9-.914.945-.946,1.5-2.352,1.5-8.684V369.057Z" transform="translate(41.122 19.443)"/><path class="a" d="M463.855,369.057h-4.637v-2.4h11.01v2.4h-3.944v27.965h-2.818a1.542,1.542,0,0,1-1.689-1.031l-13.907-27.048h-.434v26.142H452.1v1.9H440.973v-1.9h4.07V369.057h-4.07v-2.4h7.257a1.51,1.51,0,0,1,1.687,1.031l13.777,26.748h.161Z" transform="translate(54.052 19.443)"/><path class="a" d="M473.279,394.58v2.4H461.965v-2.4h4.47V369.057h-4.47v-2.4h11.314v2.4H468.87V394.58Z" transform="translate(66.559 19.443)"/><path class="a" d="M471.207,369.057v-2.4h10.8v2.4h-4.178l7.907,25.523h.826l7.955-25.523H490.5v-2.4h10.627v2.4h-3.908l-8.761,26.934c-.384,1.087-.559,1.17-1.727,1.17h-1.172c-1.122,0-1.434-.256-1.732-1.17l-8.716-26.934Z" transform="translate(72.627 19.443)"/><path class="a" d="M513.2,394.58H499.054v-12.12h10.607V380.05H499.054V369.057H513.2v3.9h2.4v-6.3H492.509v2.4h4.106V394.58h-4.106v2.4h23.083v-6.432h-2.4Z" transform="translate(85.515 19.443)"/><path class="a" d="M526.541,380.9c1.775,0,2.633-.242,3.235-.85s1.364-1.476,1.364-5.171c0-3.72-.645-4.383-1.3-5.043-.608-.607-1.562-.779-3.206-.779h-9.554V380.9Zm7.31,13.68h4.334v2.4h-4.643a2.079,2.079,0,0,1-1.6-.435c-.479-.482-.65-1.121-.827-7.313-.125-3.474-.523-4.468-1.164-5.123-.7-.742-1.65-.8-3.516-.8h-9.355v11.27h4.63v2.4H510.53v-2.4h4.149V369.057H510.53v-2.4h16.72c2.23,0,3.524.3,4.473,1.295,1.178,1.175,1.865,2.559,1.865,6.892,0,5.209-1.472,6.639-4.164,7.325l.65.093c2.817.563,3.212,1.729,3.425,6.932a53.852,53.852,0,0,0,.352,5.39" transform="translate(96.699 19.443)"/><path class="a" d="M551,395.685c-.781.829-1.99,1.3-4.245,1.3H537c-2.164,0-3.329-.343-4.245-1.2-1.079-1.133-1.557-2.127-1.557-7.639h2.391c.054,4.68.36,4.953,1.009,5.6.607.617,1.383.834,2.859.834h9.074c1.567,0,2.346-.262,2.949-.866.733-.7.753-1.536.753-4.739,0-3.294.117-3.488-.659-4.269-.57-.562-1.224-.664-3.292-.969l-8.733-1a6.694,6.694,0,0,1-4.529-1.911c-.963-.965-1.392-2.348-1.392-6.208,0-3.55.485-5.411,1.721-6.671.838-.818,2.01-1.295,4.217-1.295h8.8c2.164,0,3.343.346,4.243,1.215,1.175,1.21,1.52,2.426,1.548,7.365h-2.42c-.054-4.121-.3-4.658-1-5.354a3.669,3.669,0,0,0-2.859-.823h-7.753c-1.579,0-2.349.261-2.951.863-.789.783-1.045,1.794-1.045,4.663,0,3.164.256,3.944.949,4.643.56.553,1.314.678,3.3.943l8.458.87c2.463.255,3.72.691,4.518,1.473.982,1,1.42,2.517,1.42,6.464,0,3.9-.56,5.493-1.786,6.71" transform="translate(109.168 19.443)"/><path class="a" d="M580.536,369.057h-3.495v-2.4h10.792v2.4H583.46l7.84,13.061h.221l7.935-13.061h-4.35v-2.4H605.6v2.4h-3.617l-9.453,15.093v10.43h4.446v2.4H585.622v-2.4h4.51V384.206Z" transform="translate(137.548 19.443)"/><path class="a" d="M558.477,366.654v8.006h2.4v-6.109h8.878V394.58h-4.482v2.4h11.351v-2.4H572.16V368.551h8.87v6.109h2.4v-8.006Z" transform="translate(127.458 19.443)"/><path class="a" d="M559.684,394.58v2.4h-11.3v-2.4h4.445V369.057h-4.445v-2.4h11.3v2.4H555.27V394.58Z" transform="translate(121.972 19.443)"/></g></svg>